<svg width="20" height="20" viewBox="0 0 20 20" fill="none" xmlns="http://www.w3.org/2000/svg">
<path d="M15.6639 0H2.07849C0.93235 0 0 0.93235 0 2.07849V17.9215C0 19.0676 0.93235 20 2.07849 20H17.9215C19.0676 20 20 19.0676 20 17.9215V5.04677L15.6639 0ZM10 16.9976C8.5459 16.9976 7.3673 15.819 7.3673 14.3649C7.3673 12.9108 8.5459 11.7322 10 11.7322C11.4541 11.7322 12.6327 12.9108 12.6327 14.3649C12.6327 15.819 11.4541 16.9976 10 16.9976ZM13.3255 7.64438H2.86381V2.79458H13.3255V7.64438Z" fill="#444444"/>
</svg>
