<svg width="20" height="16" viewBox="0 0 20 16" fill="none" xmlns="http://www.w3.org/2000/svg">
<path d="M0 2C0 0.895431 0.895431 0 2 0H18C19.1046 0 20 0.895431 20 2C20 3.10457 19.1046 4 18 4H2C0.895431 4 0 3.10457 0 2Z" fill="#444444"/>
<path d="M0 8C0 6.89543 0.895431 6 2 6H18C19.1046 6 20 6.89543 20 8C20 9.10457 19.1046 10 18 10H2C0.895431 10 0 9.10457 0 8Z" fill="#444444"/>
<path d="M0 14C0 12.8954 0.895431 12 2 12H18C19.1046 12 20 12.8954 20 14C20 15.1046 19.1046 16 18 16H2C0.895431 16 0 15.1046 0 14Z" fill="#444444"/>
</svg>
