<svg width="20" height="16" viewBox="0 0 20 16" fill="none" xmlns="http://www.w3.org/2000/svg">
<path d="M8 2C8 0.895431 8.89543 0 10 0C11.1046 0 12 0.895431 12 2C12 3.10457 11.1046 4 10 4C8.89543 4 8 3.10457 8 2Z" fill="#444444"/>
<path d="M4 8C4 6.89543 4.89543 6 6 6H14C15.1046 6 16 6.89543 16 8C16 9.10457 15.1046 10 14 10H6C4.89543 10 4 9.10457 4 8Z" fill="#444444"/>
<path d="M0 14C0 12.8954 0.895431 12 2 12H18C19.1046 12 20 12.8954 20 14C20 15.1046 19.1046 16 18 16H2C0.895431 16 0 15.1046 0 14Z" fill="#444444"/>
</svg>
