<svg width="20" height="16" viewBox="0 0 20 16" fill="none" xmlns="http://www.w3.org/2000/svg">
<path d="M0 2C0 0.895431 0.895431 0 2 0H18C19.1046 0 20 0.895431 20 2C20 3.10457 19.1046 4 18 4H2C0.895431 4 0 3.10457 0 2Z" fill="#444444"/>
<path d="M4 8C4 6.89543 4.89543 6 6 6H14C15.1046 6 16 6.89543 16 8C16 9.10457 15.1046 10 14 10H6C4.89543 10 4 9.10457 4 8Z" fill="#444444"/>
<path d="M8 14C8 12.8954 8.89543 12 10 12C11.1046 12 12 12.8954 12 14C12 15.1046 11.1046 16 10 16C8.89543 16 8 15.1046 8 14Z" fill="#444444"/>
</svg>
